<svg id="visual" viewBox="0 0 900 600" width="900" height="600" xmlns="http://www.w3.org/2000/svg" xmlns:xlink="http://www.w3.org/1999/xlink" version="1.1"><rect x="0" y="0" width="900" height="600" fill="#f0f8ff"></rect><defs><linearGradient id="grad1_0" x1="33.3%" y1="0%" x2="100%" y2="100%"><stop offset="20%" stop-color="#ffcef2" stop-opacity="1"></stop><stop offset="80%" stop-color="#ffcef2" stop-opacity="1"></stop></linearGradient></defs><defs><linearGradient id="grad1_1" x1="33.3%" y1="0%" x2="100%" y2="100%"><stop offset="20%" stop-color="#ffcef2" stop-opacity="1"></stop><stop offset="80%" stop-color="#e8e7ff" stop-opacity="1"></stop></linearGradient></defs><defs><linearGradient id="grad1_2" x1="33.3%" y1="0%" x2="100%" y2="100%"><stop offset="20%" stop-color="#f0f8ff" stop-opacity="1"></stop><stop offset="80%" stop-color="#e8e7ff" stop-opacity="1"></stop></linearGradient></defs><defs><linearGradient id="grad2_0" x1="0%" y1="0%" x2="66.7%" y2="100%"><stop offset="20%" stop-color="#ffcef2" stop-opacity="1"></stop><stop offset="80%" stop-color="#ffcef2" stop-opacity="1"></stop></linearGradient></defs><defs><linearGradient id="grad2_1" x1="0%" y1="0%" x2="66.7%" y2="100%"><stop offset="20%" stop-color="#e8e7ff" stop-opacity="1"></stop><stop offset="80%" stop-color="#ffcef2" stop-opacity="1"></stop></linearGradient></defs><defs><linearGradient id="grad2_2" x1="0%" y1="0%" x2="66.7%" y2="100%"><stop offset="20%" stop-color="#e8e7ff" stop-opacity="1"></stop><stop offset="80%" stop-color="#f0f8ff" stop-opacity="1"></stop></linearGradient></defs><g transform="translate(900, 0)"><path d="M0 297.5C-34.1 278.1 -68.2 258.7 -100.6 243C-133.1 227.2 -164 215.1 -195.2 195.2C-226.3 175.3 -257.7 147.6 -274.8 113.8C-291.9 80 -294.7 40 -297.5 0L0 0Z" fill="#e8f1ff"></path><path d="M0 198.3C-22.7 185.4 -45.4 172.5 -67.1 162C-88.8 151.5 -109.3 143.4 -130.1 130.1C-150.9 116.8 -171.8 98.4 -183.2 75.9C-194.6 53.3 -196.5 26.7 -198.3 0L0 0Z" fill="#f1dbff"></path><path d="M0 99.2C-11.4 92.7 -22.7 86.2 -33.5 81C-44.4 75.7 -54.7 71.7 -65.1 65.1C-75.4 58.4 -85.9 49.2 -91.6 37.9C-97.3 26.7 -98.2 13.3 -99.2 0L0 0Z" fill="#ffcef2"></path></g><g transform="translate(0, 600)"><path d="M0 -297.5C42.9 -298.1 85.8 -298.7 113.8 -274.8C141.9 -251 155.1 -202.6 169 -169C182.9 -135.4 197.4 -116.4 219 -90.7C240.5 -65 269 -32.5 297.5 0L0 0Z" fill="#e8f1ff"></path><path d="M0 -198.3C28.6 -198.7 57.2 -199.1 75.9 -183.2C94.6 -167.3 103.4 -135.1 112.7 -112.7C121.9 -90.2 131.6 -77.6 146 -60.5C160.3 -43.3 179.3 -21.7 198.3 0L0 0Z" fill="#f1dbff"></path><path d="M0 -99.2C14.3 -99.4 28.6 -99.6 37.9 -91.6C47.3 -83.7 51.7 -67.5 56.3 -56.3C61 -45.1 65.8 -38.8 73 -30.2C80.2 -21.7 89.7 -10.8 99.2 0L0 0Z" fill="#ffcef2"></path></g></svg>