<svg id="visual" viewBox="0 0 900 600" width="900" height="600" xmlns="http://www.w3.org/2000/svg" xmlns:xlink="http://www.w3.org/1999/xlink" version="1.1"><rect x="0" y="0" width="900" height="600" fill="#F5F5F5"></rect><defs><linearGradient id="grad1_0" x1="33.3%" y1="0%" x2="100%" y2="100%"><stop offset="20%" stop-color="#f5f5f5" stop-opacity="1"></stop><stop offset="80%" stop-color="#f5f5f5" stop-opacity="1"></stop></linearGradient></defs><defs><linearGradient id="grad2_0" x1="0%" y1="0%" x2="66.7%" y2="100%"><stop offset="20%" stop-color="#f5f5f5" stop-opacity="1"></stop><stop offset="80%" stop-color="#f5f5f5" stop-opacity="1"></stop></linearGradient></defs><g transform="translate(900, 0)"><path d="M0 297.5C-38.2 293.1 -76.5 288.8 -113.8 274.8C-151.2 260.9 -187.7 237.3 -205.1 205.1C-222.4 172.9 -220.6 132 -232.8 96.4C-245 60.8 -271.2 30.4 -297.5 0L0 0Z" fill="#ff67b8"></path></g><g transform="translate(0, 600)"><path d="M0 -297.5C30.7 -272.1 61.4 -246.8 97.2 -234.7C133 -222.5 173.8 -223.6 205.8 -205.8C237.8 -188 261 -151.3 274.8 -113.8C288.6 -76.4 293 -38.2 297.5 0L0 0Z" fill="#ff67b8"></path></g></svg>