<svg id="visual" viewBox="0 0 960 540" width="960" height="540" xmlns="http://www.w3.org/2000/svg" xmlns:xlink="http://www.w3.org/1999/xlink" version="1.1"><rect x="0" y="0" width="960" height="540" fill="#eff8ff"></rect><defs><linearGradient id="grad1_0" x1="43.8%" y1="100%" x2="100%" y2="0%"><stop offset="14.444444444444446%" stop-color="#ff85c6" stop-opacity="1"></stop><stop offset="85.55555555555554%" stop-color="#ff85c6" stop-opacity="1"></stop></linearGradient></defs><defs><linearGradient id="grad1_1" x1="43.8%" y1="100%" x2="100%" y2="0%"><stop offset="14.444444444444446%" stop-color="#ff85c6" stop-opacity="1"></stop><stop offset="85.55555555555554%" stop-color="#e7abf0" stop-opacity="1"></stop></linearGradient></defs><defs><linearGradient id="grad1_2" x1="43.8%" y1="100%" x2="100%" y2="0%"><stop offset="14.444444444444446%" stop-color="#d3cbff" stop-opacity="1"></stop><stop offset="85.55555555555554%" stop-color="#e7abf0" stop-opacity="1"></stop></linearGradient></defs><defs><linearGradient id="grad1_3" x1="43.8%" y1="100%" x2="100%" y2="0%"><stop offset="14.444444444444446%" stop-color="#d3cbff" stop-opacity="1"></stop><stop offset="85.55555555555554%" stop-color="#d4e5ff" stop-opacity="1"></stop></linearGradient></defs><defs><linearGradient id="grad1_4" x1="43.8%" y1="100%" x2="100%" y2="0%"><stop offset="14.444444444444446%" stop-color="#eff8ff" stop-opacity="1"></stop><stop offset="85.55555555555554%" stop-color="#d4e5ff" stop-opacity="1"></stop></linearGradient></defs><defs><linearGradient id="grad2_0" x1="0%" y1="100%" x2="56.3%" y2="0%"><stop offset="14.444444444444446%" stop-color="#ff85c6" stop-opacity="1"></stop><stop offset="85.55555555555554%" stop-color="#ff85c6" stop-opacity="1"></stop></linearGradient></defs><defs><linearGradient id="grad2_1" x1="0%" y1="100%" x2="56.3%" y2="0%"><stop offset="14.444444444444446%" stop-color="#e7abf0" stop-opacity="1"></stop><stop offset="85.55555555555554%" stop-color="#ff85c6" stop-opacity="1"></stop></linearGradient></defs><defs><linearGradient id="grad2_2" x1="0%" y1="100%" x2="56.3%" y2="0%"><stop offset="14.444444444444446%" stop-color="#e7abf0" stop-opacity="1"></stop><stop offset="85.55555555555554%" stop-color="#d3cbff" stop-opacity="1"></stop></linearGradient></defs><defs><linearGradient id="grad2_3" x1="0%" y1="100%" x2="56.3%" y2="0%"><stop offset="14.444444444444446%" stop-color="#d4e5ff" stop-opacity="1"></stop><stop offset="85.55555555555554%" stop-color="#d3cbff" stop-opacity="1"></stop></linearGradient></defs><defs><linearGradient id="grad2_4" x1="0%" y1="100%" x2="56.3%" y2="0%"><stop offset="14.444444444444446%" stop-color="#d4e5ff" stop-opacity="1"></stop><stop offset="85.55555555555554%" stop-color="#eff8ff" stop-opacity="1"></stop></linearGradient></defs><g transform="translate(960, 540)"><path d="M-540 0C-406.3 -24.8 -272.5 -49.7 -244.2 -141C-215.9 -232.3 -293.1 -390.1 -270 -467.7C-246.9 -545.2 -123.4 -542.6 0 -540L0 0Z" fill="#dfefff"></path><path d="M-432 0C-325 -19.9 -218 -39.8 -195.4 -112.8C-172.8 -185.8 -234.5 -312.1 -216 -374.1C-197.5 -436.2 -98.7 -434.1 0 -432L0 0Z" fill="#d1d9ff"></path><path d="M-324 0C-243.8 -14.9 -163.5 -29.8 -146.5 -84.6C-129.6 -139.4 -175.9 -234 -162 -280.6C-148.1 -327.1 -74.1 -325.6 0 -324L0 0Z" fill="#dcbcfc"></path><path d="M-216 0C-162.5 -9.9 -109 -19.9 -97.7 -56.4C-86.4 -92.9 -117.3 -156 -108 -187.1C-98.7 -218.1 -49.4 -217 0 -216L0 0Z" fill="#f498de"></path><path d="M-108 0C-81.3 -5 -54.5 -9.9 -48.8 -28.2C-43.2 -46.5 -58.6 -78 -54 -93.5C-49.4 -109 -24.7 -108.5 0 -108L0 0Z" fill="#ff85c6"></path></g><g transform="translate(0, 0)"><path d="M540 0C458.4 55 376.9 110 342.1 197.5C307.3 285 319.2 405.1 270 467.7C220.8 530.2 110.4 535.1 0 540L0 0Z" fill="#dfefff"></path><path d="M432 0C366.8 44 301.5 88 273.7 158C245.8 228 255.4 324.1 216 374.1C176.6 424.1 88.3 428.1 0 432L0 0Z" fill="#d1d9ff"></path><path d="M324 0C275.1 33 226.1 66 205.2 118.5C184.4 171 191.5 243.1 162 280.6C132.5 318.1 66.2 321 0 324L0 0Z" fill="#dcbcfc"></path><path d="M216 0C183.4 22 150.8 44 136.8 79C122.9 114 127.7 162.1 108 187.1C88.3 212.1 44.2 214 0 216L0 0Z" fill="#f498de"></path><path d="M108 0C91.7 11 75.4 22 68.4 39.5C61.5 57 63.8 81 54 93.5C44.2 106 22.1 107 0 108L0 0Z" fill="#ff85c6"></path></g></svg>